<svg width="173" height="83" viewBox="0 0 173 83" fill="none" xmlns="http://www.w3.org/2000/svg">
<g filter="url(#filter0_d_1_28)">
<rect x="4" width="165" height="75" rx="37.5" fill="#D9D9D9" fill-opacity="0.2" shape-rendering="crispEdges"/>
<path d="M33.1705 50.5V24.3182H42.3239C44.1477 24.3182 45.652 24.6335 46.8366 25.2642C48.0213 25.8864 48.9034 26.7259 49.483 27.7827C50.0625 28.831 50.3523 29.9943 50.3523 31.2727C50.3523 32.3977 50.152 33.3267 49.7514 34.0597C49.3594 34.7926 48.8395 35.3722 48.1918 35.7983C47.5526 36.2244 46.858 36.5398 46.108 36.7443V37C46.9091 37.0511 47.7145 37.3324 48.5241 37.8438C49.3338 38.3551 50.0114 39.0881 50.5568 40.0426C51.1023 40.9972 51.375 42.1648 51.375 43.5455C51.375 44.858 51.0767 46.0384 50.4801 47.0866C49.8835 48.1349 48.9418 48.9659 47.6548 49.5795C46.3679 50.1932 44.6932 50.5 42.6307 50.5H33.1705ZM36.3409 47.6875H42.6307C44.7017 47.6875 46.1719 47.2869 47.0412 46.4858C47.919 45.6761 48.358 44.696 48.358 43.5455C48.358 42.6591 48.1321 41.8409 47.6804 41.0909C47.2287 40.3324 46.5852 39.7273 45.75 39.2756C44.9148 38.8153 43.9261 38.5852 42.7841 38.5852H36.3409V47.6875ZM36.3409 35.8239H42.2216C43.1761 35.8239 44.0369 35.6364 44.804 35.2614C45.5795 34.8864 46.1932 34.358 46.6449 33.6761C47.1051 32.9943 47.3352 32.1932 47.3352 31.2727C47.3352 30.1222 46.9347 29.1463 46.1335 28.3452C45.3324 27.5355 44.0625 27.1307 42.3239 27.1307H36.3409V35.8239ZM68.5504 42.4716V30.8636H71.5675V50.5H68.5504V47.1761H68.3459C67.8857 48.1733 67.1697 49.0213 66.1982 49.7202C65.2266 50.4105 63.9993 50.7557 62.5163 50.7557C61.2891 50.7557 60.1982 50.4872 59.2436 49.9503C58.2891 49.4048 57.5391 48.5866 56.9936 47.4957C56.4482 46.3963 56.1754 45.0114 56.1754 43.3409V30.8636H59.1925V43.1364C59.1925 44.5682 59.593 45.7102 60.3942 46.5625C61.2038 47.4148 62.2351 47.8409 63.4879 47.8409C64.2379 47.8409 65.0007 47.6491 65.7763 47.2656C66.5604 46.8821 67.2166 46.294 67.745 45.5014C68.282 44.7088 68.5504 43.6989 68.5504 42.4716ZM85.6332 30.8636V33.4205H75.457V30.8636H85.6332ZM78.4229 26.1591H81.44V44.875C81.44 45.7273 81.5636 46.3665 81.8107 46.7926C82.0664 47.2102 82.3903 47.4915 82.7823 47.6364C83.1829 47.7727 83.6048 47.8409 84.0479 47.8409C84.3803 47.8409 84.6531 47.8239 84.8661 47.7898C85.0792 47.7472 85.2496 47.7131 85.3775 47.6875L85.9911 50.3977C85.7866 50.4744 85.5011 50.5511 85.1346 50.6278C84.7681 50.7131 84.3036 50.7557 83.7411 50.7557C82.8888 50.7557 82.0536 50.5724 81.2354 50.206C80.4258 49.8395 79.7525 49.2812 79.2156 48.5312C78.6871 47.7812 78.4229 46.8352 78.4229 45.6932V26.1591ZM98.7113 30.8636V33.4205H88.5352V30.8636H98.7113ZM91.5011 26.1591H94.5181V44.875C94.5181 45.7273 94.6417 46.3665 94.8888 46.7926C95.1445 47.2102 95.4684 47.4915 95.8604 47.6364C96.261 47.7727 96.6829 47.8409 97.1261 47.8409C97.4585 47.8409 97.7312 47.8239 97.9442 47.7898C98.1573 47.7472 98.3278 47.7131 98.4556 47.6875L99.0692 50.3977C98.8647 50.4744 98.5792 50.5511 98.2127 50.6278C97.8462 50.7131 97.3817 50.7557 96.8192 50.7557C95.967 50.7557 95.1317 50.5724 94.3136 50.206C93.5039 49.8395 92.8306 49.2812 92.2937 48.5312C91.7653 47.7812 91.5011 46.8352 91.5011 45.6932V26.1591ZM111.016 50.9091C109.243 50.9091 107.688 50.4872 106.35 49.6435C105.02 48.7997 103.98 47.6193 103.23 46.1023C102.489 44.5852 102.118 42.8125 102.118 40.7841C102.118 38.7386 102.489 36.9531 103.23 35.4276C103.98 33.902 105.02 32.7173 106.35 31.8736C107.688 31.0298 109.243 30.608 111.016 30.608C112.789 30.608 114.34 31.0298 115.669 31.8736C117.007 32.7173 118.047 33.902 118.789 35.4276C119.539 36.9531 119.914 38.7386 119.914 40.7841C119.914 42.8125 119.539 44.5852 118.789 46.1023C118.047 47.6193 117.007 48.7997 115.669 49.6435C114.34 50.4872 112.789 50.9091 111.016 50.9091ZM111.016 48.1989C112.363 48.1989 113.471 47.8537 114.34 47.1634C115.209 46.473 115.853 45.5653 116.27 44.4403C116.688 43.3153 116.897 42.0966 116.897 40.7841C116.897 39.4716 116.688 38.2486 116.27 37.1151C115.853 35.9815 115.209 35.0653 114.34 34.3665C113.471 33.6676 112.363 33.3182 111.016 33.3182C109.669 33.3182 108.561 33.6676 107.692 34.3665C106.823 35.0653 106.179 35.9815 105.762 37.1151C105.344 38.2486 105.135 39.4716 105.135 40.7841C105.135 42.0966 105.344 43.3153 105.762 44.4403C106.179 45.5653 106.823 46.473 107.692 47.1634C108.561 47.8537 109.669 48.1989 111.016 48.1989ZM127.536 38.6875V50.5H124.519V30.8636H127.434V33.9318H127.69C128.15 32.9347 128.849 32.1335 129.786 31.5284C130.724 30.9148 131.934 30.608 133.417 30.608C134.746 30.608 135.91 30.8807 136.907 31.4261C137.904 31.9631 138.68 32.7812 139.234 33.8807C139.788 34.9716 140.065 36.3523 140.065 38.0227V50.5H137.048V38.2273C137.048 36.6847 136.647 35.483 135.846 34.6222C135.045 33.7528 133.945 33.3182 132.548 33.3182C131.585 33.3182 130.724 33.527 129.965 33.9446C129.215 34.3622 128.623 34.9716 128.188 35.7727C127.754 36.5739 127.536 37.5455 127.536 38.6875Z" fill="#6358DE"/>
</g>
<defs>
<filter id="filter0_d_1_28" x="0" y="0" width="173" height="83" filterUnits="userSpaceOnUse" color-interpolation-filters="sRGB">
<feFlood flood-opacity="0" result="BackgroundImageFix"/>
<feColorMatrix in="SourceAlpha" type="matrix" values="0 0 0 0 0 0 0 0 0 0 0 0 0 0 0 0 0 0 127 0" result="hardAlpha"/>
<feOffset dy="4"/>
<feGaussianBlur stdDeviation="2"/>
<feComposite in2="hardAlpha" operator="out"/>
<feColorMatrix type="matrix" values="0 0 0 0 0 0 0 0 0 0 0 0 0 0 0 0 0 0 0.25 0"/>
<feBlend mode="normal" in2="BackgroundImageFix" result="effect1_dropShadow_1_28"/>
<feBlend mode="normal" in="BackgroundImageFix" in2="effect1_dropShadow_1_28" result="BackgroundImageFix"/>
<feBlend mode="normal" in="SourceGraphic" in2="BackgroundImageFix" result="shape"/>
</filter>
</defs>
</svg>
